<?xml version="1.0" encoding="utf-8"?>
<!-- Generator: Adobe Illustrator 27.8.1, SVG Export Plug-In . SVG Version: 6.00 Build 0)  -->
<svg version="1.1" id="Layer_1" xmlns="http://www.w3.org/2000/svg" xmlns:xlink="http://www.w3.org/1999/xlink" x="0px" y="0px"
	 viewBox="0 0 502.3 310.6" style="enable-background:new 0 0 502.3 310.6;" xml:space="preserve">
<style type="text/css">
	.st0{fill:#FFFFFF;}
	.st1{fill:#231F20;}
	.st2{fill:#CF4967;}
	.st3{fill:none;}
	.st4{fill:#C4C4C4;}
</style>
<g id="mp72idwfrciztw870wa43_369_chef_flatline">
	<path class="st0" d="M247.1,36.1c-0.5-0.6-1.1-0.9-1.9-0.9c-0.3,0-0.6,0.1-0.9,0.3c-0.3,0.3-0.4,0.7-0.5,1.1
		c-0.2,1.1-0.2,2.2,0.1,3.2c0.3,1.1,0.9,2,1.7,2.7c0.9,0.7,2.2,0.9,2.7-0.4C249.1,40,248.6,37.7,247.1,36.1z"/>
	<path class="st1" d="M247.1,43.5c-0.6,0-1.2-0.2-1.7-0.6c-0.9-0.7-1.6-1.8-1.9-2.9c-0.3-1.1-0.3-2.3-0.1-3.4c0-0.5,0.3-1,0.6-1.3
		c0.3-0.3,0.7-0.5,1.2-0.4c0.9,0,1.7,0.4,2.2,1.1l0,0c1.6,1.7,2.2,4.2,1.4,6.4c-0.2,0.6-0.6,1-1.2,1.2
		C247.4,43.4,247.3,43.5,247.1,43.5z M245.3,35.6L245.3,35.6c-0.2,0-0.4,0.1-0.6,0.2c-0.2,0.2-0.3,0.5-0.3,0.9c-0.2,1-0.2,2,0.1,3
		c0.2,1,0.8,1.8,1.6,2.5c0.4,0.3,0.9,0.5,1.4,0.4c0.3-0.1,0.5-0.4,0.6-0.7c0.6-1.9,0.2-4-1.2-5.5C246.4,35.9,245.9,35.6,245.3,35.6z
		"/>
	<path class="st0" d="M268.4,40.1c0.8-2.3,1-4.7,0.5-7.1c-0.9-3.6-5.7-7.4-9.1-7.1s-12.5,4.4-12.9,5.7c-0.4,1.3-1.2,11.3,0.7,12.5
		C249.5,45.4,267.1,44.3,268.4,40.1z"/>
	<path class="st1" d="M251.6,45c-2.1,0-3.7-0.2-4.3-0.5c-2.3-1.5-1.3-11.9-0.9-13c0.5-1.6,9.8-5.8,13.3-6c3.7-0.3,8.6,3.6,9.6,7.4
		c0.5,2.5,0.4,5-0.5,7.4c-0.3,1.1-1.6,2.1-3.8,2.8C261.3,44.4,255.6,45,251.6,45z M260,26.3h-0.3c-3.4,0.2-12.2,4.4-12.5,5.4
		c-0.4,2-0.5,4.1-0.5,6.1c0,4.8,0.8,5.7,1.1,5.9c1.2,0.8,11.4,0.5,16.9-1.5c1.9-0.7,3-1.5,3.3-2.3l0,0c0.8-2.2,0.9-4.6,0.4-6.9
		C267.6,29.8,263.2,26.3,260,26.3z"/>
	<path class="st0" d="M249,24.9c0,0-2,2-5.5,0c-3.4-2-2.7-6-1.7-7.4c1-1.4,4-4.2,6.7-3.4c1.3,0.2,2.6,0.7,3.7,1.4
		c0,0,2.3-1.4,7.3-1.5c5.1-0.1,6.7,2.5,6.7,2.5s4-1.6,6.5,0.7c2.2,1.9,2.6,5.3,0.8,7.6c-1.6,1.9-8,1.4-8,1.4L249,24.9z"/>
	<path class="st1" d="M267.4,26.7c-0.9,0-1.7-0.1-1.9-0.1l-16.4-1.3c-0.6,0.5-2.7,1.8-5.8-0.1c-1.3-0.8-2.3-2-2.6-3.5
		c-0.3-1.5-0.1-3.1,0.7-4.5c1.1-1.5,4.2-4.4,7.2-3.6c1.3,0.3,2.5,0.7,3.6,1.4c0.7-0.4,3.1-1.3,7.3-1.4c4.2-0.1,6.2,1.7,6.9,2.4
		c1-0.3,4.4-1.2,6.7,0.9c2.4,2.1,2.8,5.7,0.9,8.2C272.7,26.4,269.5,26.7,267.4,26.7z M249,24.5L249,24.5l16.6,1.3
		c1.7,0.1,6.4,0.2,7.6-1.2c1.6-2.2,1.3-5.2-0.7-7c-2.3-2.1-6-0.6-6.1-0.6c-0.2,0.1-0.4,0-0.5-0.2c-0.1-0.1-1.6-2.4-6.3-2.3
		c-4.9,0.1-7.1,1.4-7.1,1.4c-0.1,0.1-0.3,0.1-0.5,0c-1.1-0.7-2.3-1.1-3.5-1.4c-2.6-0.6-5.4,2-6.3,3.3c-0.7,1.1-0.9,2.5-0.6,3.8
		c0.3,1.3,1.1,2.4,2.2,3c3.1,1.8,5,0.1,5,0.1C248.7,24.5,248.8,24.5,249,24.5z"/>
	<path class="st0" d="M252.4,49.9l-1.6,8.3c0,0,2.7,5.2,8.2,3.8c5.5-1.4,6.4-5.7,6.4-5.7l0.4-8.9l0.2-5.5c0.1-0.6,0.1-1.1,0.1-1.7
		c-0.2-0.6-0.9-1-1.2-1.4c-0.5-0.7-1-1.4-1.3-2.2c-0.8-1.5-1.4-3.2-1.7-4.9c-2.1,0.2-4.2-0.5-5.8-1.7c-0.6,1.1,1.3,2.1,1.1,3.3
		c-2-0.3-4.6-1-6-2.4c-0.7-0.1-3.4,4.8-3.8,6.8c-0.5,2.5-0.6,5.1-0.2,7.7C247.8,49.6,252.4,49.9,252.4,49.9z"/>
	<path class="st1" d="M257.1,62.8c-4.5,0-6.7-4.2-6.7-4.3c0-0.1,0-0.2,0-0.3l1.5-7.9c-1.3-0.2-4.6-1.2-5.3-4.9
		c-0.4-2.6-0.3-5.3,0.2-7.9c0.4-1.5,1-3,1.8-4.3c1.6-2.9,2.2-2.9,2.4-2.9c0.1,0,0.2,0.1,0.3,0.1c1,1,2.7,1.7,5.2,2.2
		c-0.1-0.3-0.3-0.5-0.5-0.8c-0.4-0.6-1-1.4-0.5-2.2c0.1-0.1,0.2-0.2,0.3-0.2c0.1,0,0.2,0,0.3,0.1c1.6,1.2,3.6,1.8,5.5,1.6
		c0.2,0,0.4,0.1,0.5,0.3c0.3,1.7,0.9,3.3,1.7,4.7c0.4,0.7,0.8,1.5,1.3,2.1c0.1,0.2,0.3,0.3,0.4,0.4c0.4,0.3,0.7,0.7,0.9,1.1
		c0.1,0.5,0.1,0.9,0,1.4c0,0.2,0,0.3,0,0.5l-0.6,14.4c0,0.1-0.9,4.6-6.7,6.1C258.5,62.6,257.8,62.7,257.1,62.8z M251.2,58.2
		c0.4,0.8,2.9,4.7,7.6,3.4c5.2-1.4,6-5.3,6-5.3l0.6-14.4c0-0.2,0-0.4,0.1-0.5c0.1-0.3,0.1-0.7,0-1c-0.2-0.3-0.4-0.6-0.6-0.8
		c-0.2-0.2-0.4-0.3-0.5-0.5c-0.5-0.7-1-1.5-1.4-2.3c-0.8-1.5-1.3-3-1.7-4.6c-1.8,0.1-3.6-0.4-5.1-1.3c0.1,0.2,0.3,0.4,0.4,0.6
		c0.5,0.5,0.7,1.2,0.7,1.9c0,0.1-0.1,0.2-0.2,0.3c-0.1,0.1-0.2,0.1-0.3,0.1c-2.8-0.4-4.8-1.2-6-2.3c-1.5,1.9-2.6,4-3.3,6.3
		c-0.5,2.5-0.6,5-0.2,7.5c0.7,3.9,4.9,4.2,5,4.2c0.1,0,0.2,0.1,0.3,0.2c0.1,0.1,0.1,0.2,0.1,0.3L251.2,58.2z"/>
	<path class="st1" d="M251.5,54.3c1.9,0.3,3.9-0.3,5.3-1.7c2.4-2.4,2.2-4.3,2.2-4.3c-1.9,1.4-4.3,2-6.6,1.7L251.5,54.3z"/>
	<path class="st1" d="M252.6,54.8c-0.4,0-0.7,0-1.1-0.1c-0.2-0.1-0.4-0.3-0.3-0.5l0.8-4.4c0.1-0.2,0.3-0.4,0.5-0.3
		c2.2,0.3,4.5-0.3,6.3-1.6c0.2-0.1,0.4-0.1,0.6,0.1c0.1,0.1,0.1,0.1,0.1,0.2c0,0.1,0.2,2.2-2.3,4.7
		C255.9,54.2,254.3,54.8,252.6,54.8z M252,54c1.7,0.2,3.3-0.5,4.5-1.7c0.9-0.9,1.6-2,1.9-3.2c-1.7,1-3.8,1.5-5.8,1.3L252,54z"/>
	<path class="st0" d="M256.6,36.2c0,0-3,4.3-2.3,5c0.7,0.7,2.6,0.3,2.6,0.3"/>
	<path class="st1" d="M255.7,42.1c-0.6,0.1-1.3-0.2-1.7-0.6c-0.7-0.9,0.9-3.4,2.3-5.6c0.1-0.2,0.4-0.2,0.6-0.1
		c0.2,0.1,0.2,0.4,0.1,0.6c0,0,0,0,0,0c-1.4,2-2.5,4.1-2.3,4.5c0.4,0.4,1.6,0.3,2.2,0.1c0.2-0.1,0.5,0.1,0.5,0.3
		c0.1,0.2-0.1,0.5-0.3,0.5c0,0,0,0,0,0C256.6,42.1,256.1,42.1,255.7,42.1z"/>
	
		<ellipse transform="matrix(0.9976 -6.871179e-02 6.871179e-02 0.9976 -1.8578 17.9546)" class="st1" cx="260.1" cy="36" rx="0.7" ry="1"/>
	<ellipse transform="matrix(0.2282 -0.9736 0.9736 0.2282 160.5345 274.3247)" class="st1" cx="253.3" cy="35.9" rx="1" ry="0.7"/>
	<path class="st1" d="M255.1,48c-0.8,0-1.6-0.3-2.1-0.9c-1.3-1.5-0.8-4.1-0.7-4.2c0-0.2,0.2-0.3,0.4-0.3l0,0
		c6.6,0.2,6.6,0.2,6.8,0.4c0.1,0.1,0.1,0.2,0.1,0.3l0,0c-0.1,1-0.5,2-1.1,2.8c-0.7,1.1-1.9,1.7-3.2,1.8L255.1,48z M253,43.5
		c-0.2,1.1,0,2.2,0.6,3.1c0.4,0.4,1,0.6,1.5,0.6c1-0.1,2-0.6,2.6-1.4c0.4-0.6,0.7-1.3,0.9-2C257.6,43.6,254.9,43.5,253,43.5z"/>
	<path class="st1" d="M258.1,45.9c-1.5,2-3.9,1.9-4.8,0.9c0.4-0.8,1.1-1.5,2-1.7C256.4,45.1,257.3,45.4,258.1,45.9z"/>
	<path class="st1" d="M255.1,48c-0.8,0-1.6-0.3-2.1-0.9c-0.1-0.1-0.1-0.3,0-0.5c0.4-1,1.3-1.7,2.3-1.9c1.1-0.1,2.2,0.2,3.1,0.9
		c0.1,0.1,0.2,0.2,0.2,0.3c0,0.1,0,0.2-0.1,0.3c-0.7,1.1-1.9,1.7-3.2,1.8L255.1,48z M253.9,46.8c0.4,0.3,0.8,0.4,1.3,0.3
		c0.9,0,1.7-0.4,2.3-1.1c-0.6-0.4-1.3-0.5-2.1-0.4C254.7,45.8,254.2,46.2,253.9,46.8z"/>
	<path class="st0" d="M264.2,39.9c-0.1-1.8,1.7-4.3,3.7-3.2c0.7,0.4,1.2,1.2,1.3,2c1,3.7-1.9,5.1-3.9,6"/>
	<path class="st1" d="M265.3,45.1c-0.2,0-0.3-0.1-0.4-0.2c-0.1-0.2,0-0.4,0.2-0.6c0,0,0,0,0,0c2.1-1,4.5-2.1,3.7-5.5
		c-0.1-0.7-0.5-1.3-1.1-1.7c-0.5-0.3-1.2-0.3-1.7,0.1c-0.9,0.6-1.4,1.7-1.4,2.7c0,0.2-0.2,0.4-0.4,0.4c0,0,0,0,0,0
		c-0.2,0-0.4-0.1-0.4-0.4c0,0,0,0,0,0c0-1.4,0.6-2.7,1.8-3.5c0.8-0.5,1.7-0.5,2.5-0.1c0.8,0.5,1.4,1.3,1.6,2.2
		c1,4.1-2.2,5.6-4.1,6.5C265.5,45.1,265.4,45.1,265.3,45.1z"/>
	<path class="st0" d="M247.7,23.1c0,0-1,6.8-1,8.5c2.6-1.6,5.6-2.4,8.6-2.5c4.7,0,11.5,2.8,13.5,3.9l-1.4-10.6c0,0-3.3-1.8-10.3-1.1
		S247.7,23.1,247.7,23.1z"/>
	<path class="st1" d="M268.8,33.4c-0.1,0-0.1,0-0.2-0.1c-1.8-1-8.6-3.8-13.3-3.8h-0.1c-2.9,0.1-5.8,0.9-8.3,2.4
		c-0.2,0.1-0.5,0.1-0.6-0.1c0-0.1-0.1-0.1-0.1-0.2c-0.1-1.7,0.9-8.3,1-8.6c0-0.1,0.1-0.3,0.2-0.3c0.1,0,2.4-1.1,9.5-1.8
		c7-0.7,10.5,1.1,10.6,1.2c0.1,0.1,0.2,0.2,0.2,0.3l1.4,10.6c0,0.2-0.1,0.3-0.2,0.4C269,33.4,268.9,33.4,268.8,33.4z M255.3,28.7
		L255.3,28.7c4.4,0,10.4,2.3,13,3.6l-1.3-9.5c-0.8-0.3-4-1.5-9.9-0.9c-5.8,0.6-8.3,1.4-9,1.7c-0.2,1.1-0.8,5.4-0.9,7.4
		C249.7,29.5,252.5,28.7,255.3,28.7z"/>
	<path class="st0" d="M247.6,19.4c0,0,0.9,4.7,4.5,4.8c3.6,0.1,7.8-2.4,7.8-2.4s7.5,3.5,10.7-0.6"/>
	<path class="st1" d="M252.3,24.6h-0.2c-3.9-0.1-4.9-4.9-4.9-5.2c0-0.2,0.1-0.5,0.3-0.5c0.2,0,0.5,0.1,0.5,0.3c0,0,0.9,4.4,4.1,4.4
		c3.4,0.1,7.5-2.3,7.5-2.4c0.1-0.1,0.3-0.1,0.4,0c0.1,0,7.2,3.3,10.2-0.4c0.1-0.2,0.4-0.3,0.6-0.1c0.2,0.1,0.3,0.4,0.1,0.6
		c0,0,0,0,0,0.1c-3.1,4-9.8,1.4-11,0.8C259.1,22.7,255.6,24.6,252.3,24.6z"/>
	<path class="st2" d="M267.4,52.3l-7.8,1.2l-3,3.2l-1.3-3.3l-5.4-1.7l-0.6,5l-10.5,6.2c0,0-5.5,46.9-3.4,60.7c0,0,37.3,1.4,48.9-5.3
		c0,0-7.3-34.7-6.3-41.1c0.7-4.6,1-9.2,1.1-13.9l-11-6.4L267.4,52.3z"/>
	<path class="st0" d="M213.3,59.1c0,0,4.3-6,4.7-7.3s0.2-6.4-0.2-6.6c-1,0-1.9,0.5-2.4,1.4c-0.3,1-0.4,2.1-0.5,3.1
		c-0.9-0.1-1.8,0.2-2.6,0.7c0,0-1.1-3-1.2-3.3s2-2.7,2-2.7c0.8,0.6,1.8,0.8,2.8,0.6c1.4-0.5,1.6-0.9,1-1.8c-0.6-0.9-5.7-1.9-5.7-1.9
		l-3.4,3.4c0,0-0.5-4.9,0-5.9s1.5-3.8,1-4.6c-0.5-0.9-1.7-0.5-2.2,0.4c-0.6,0.9-2.1,3.8-2.2,4.7c-0.1,0.9,0,5.3,0,5.3
		s-1.7-3.8-1.6-4.6s2-4.4,1.3-5.2c-0.8-0.8-4.1,3.5-4.4,5.2s1.8,6.4,1.8,6.4s-2.9-2.5-2.9-2.9c0-0.5,0.2-4.4-0.3-5
		c-0.5-0.5-1.7-0.4-1.8,1.5s-0.1,4.9,0.4,6s5.4,9.4,5.6,10.3c0.2,0.9-0.4,5.6-0.4,5.6l10.2,0.5L213.3,59.1z"/>
	<path class="st1" d="M212.2,62.6L212.2,62.6L202,62.2c-0.2,0-0.4-0.2-0.4-0.5c0,0,0,0,0,0c0.3-1.8,0.5-3.6,0.4-5.4
		c-0.1-0.5-2.3-4.3-3.7-6.8c-0.9-1.7-1.7-3-1.9-3.4c-0.7-1.3-0.7-4.5-0.5-6.3c0.1-1.6,0.9-2,1.3-2.1c0.5-0.2,1,0,1.3,0.4
		c0.3,0.4,0.5,1.3,0.4,4.9c0,0.2,0,0.3,0,0.4c0.4,0.5,0.9,1,1.3,1.4c-0.6-1.6-1.3-3.8-1.1-4.9c0.3-1.5,2.9-5.2,4.3-5.6
		c0.3-0.1,0.6,0,0.9,0.2c0.7,0.8,0.1,2.5-0.8,4.6c-0.2,0.4-0.3,0.8-0.4,1c0.1,0.8,0.4,1.6,0.7,2.4c0-1.3,0-2.8,0-3.2
		c0.1-1,1.6-4.1,2.2-4.9c0.4-0.6,1-1,1.7-1.1l0,0c0.5,0,0.9,0.3,1.2,0.7c0.7,1.2-0.6,4.5-0.9,5.1s-0.2,3-0.1,4.8l2.7-2.7
		c0.1-0.1,0.2-0.1,0.4-0.1c1.2,0.2,5.3,1.1,6,2.1c0.3,0.4,0.5,0.9,0.4,1.4c-0.1,0.2-0.2,0.3-0.3,0.5c0.2,0,0.4,0,0.6,0
		c0.9,0.4,0.6,6.4,0.4,7.1c-0.4,1.3-4.1,6.6-4.7,7.4l-1.1,3.1C212.5,62.5,212.4,62.6,212.2,62.6z M202.5,61.3l9.4,0.4l1-2.8
		c0,0,0-0.1,0.1-0.1c1.7-2.4,4.3-6.3,4.6-7.2c0.3-2,0.2-4-0.1-6c-0.7,0.2-1.3,0.6-1.8,1.1c-0.3,1-0.4,2-0.5,3c0,0.1-0.1,0.2-0.1,0.3
		c-0.1,0.1-0.2,0.1-0.3,0.1c-0.8,0-1.6,0.2-2.3,0.6c-0.1,0.1-0.3,0.1-0.4,0.1c-0.1,0-0.2-0.1-0.3-0.3c-0.3-0.7-1.1-3.1-1.2-3.4
		c-0.1-0.3-0.1-0.5,2.1-3.1c0.1-0.2,0.4-0.2,0.6-0.1c0.7,0.5,1.6,0.7,2.4,0.5c0.9-0.3,1-0.4,1-0.5c0-0.1,0-0.2-0.3-0.6
		c-0.3-0.4-2.9-1.2-5.2-1.7l-3.2,3.2c-0.1,0.1-0.3,0.2-0.4,0.1c-0.2-0.1-0.3-0.2-0.3-0.4c-0.1-0.9-0.5-5.1,0.1-6.2
		c0.6-1.2,1.3-3.6,1-4.2c-0.1-0.2-0.3-0.3-0.5-0.3c-0.4,0.1-0.8,0.3-1.1,0.7c-0.9,1.4-1.6,2.9-2.1,4.5c-0.1,0.9,0,5.2,0,5.3
		c0,0.2-0.1,0.4-0.3,0.4c-0.2,0-0.4-0.1-0.5-0.2c-0.5-1.2-1.8-4-1.6-4.9c0.1-0.4,0.3-0.8,0.4-1.1c0.3-0.8,1.3-3.3,1-3.7
		c-0.6,0-3.4,3.4-3.7,5c-0.2,1.3,1.2,4.9,1.8,6.1c0.1,0.2,0,0.5-0.2,0.6c-0.2,0.1-0.3,0-0.5-0.1c-3-2.6-3-3.1-3-3.3s0-0.2,0-0.4
		c0.1-3.4-0.1-4.1-0.2-4.3c-0.1-0.1-0.3-0.2-0.4-0.1c-0.3,0.1-0.6,0.6-0.7,1.4c-0.2,2-0.1,4.8,0.4,5.8c0.2,0.4,1,1.8,1.9,3.4
		c2.1,3.7,3.6,6.4,3.8,7C203.1,56.9,202.7,60,202.5,61.3z M211.6,47c0.1,0.4,0.5,1.5,0.9,2.7c0.6-0.3,1.3-0.5,1.9-0.5
		c0-1,0.2-1.9,0.5-2.9c0.2-0.4,0.5-0.7,0.9-0.9c-0.9,0.1-1.8,0-2.6-0.5C212.6,45.6,212,46.3,211.6,47z"/>
	<path class="st0" d="M205.9,49.3c1.6,1.5,2.5,3.6,2.4,5.8c0.8-1.9,2.2-3.6,3.9-4.7"/>
	<path class="st1" d="M208.3,55.5h-0.1c-0.2-0.1-0.3-0.2-0.3-0.5c0.1-2-0.7-4-2.2-5.4c-0.2-0.1-0.3-0.4-0.1-0.6
		c0.1-0.2,0.4-0.3,0.6-0.1c0,0,0.1,0,0.1,0.1c1.3,1.2,2.2,2.7,2.5,4.4c0.8-1.4,2-2.6,3.3-3.4c0.2-0.1,0.5,0,0.6,0.2
		c0.1,0.2,0,0.5-0.1,0.6c-1.7,1.1-3,2.7-3.7,4.5C208.7,55.4,208.5,55.5,208.3,55.5z"/>
	<path class="st0" d="M200.6,46.8c0,0,3.6-2.1,5.8-2.2"/>
	<path class="st1" d="M200.6,47.3c-0.2,0-0.4-0.2-0.4-0.4c0-0.2,0.1-0.3,0.2-0.4c0.2-0.1,3.7-2.1,5.9-2.2c0.2,0,0.4,0.2,0.5,0.4
		s-0.2,0.4-0.4,0.5l0,0c-2.1,0.1-5.5,2.1-5.6,2.1C200.8,47.2,200.7,47.3,200.6,47.3z"/>
	<path class="st0" d="M305,54c0.3-1.2,0.4-2.4,0.3-3.6c-0.3-1.6,0.1-5.1-0.3-6.3c-0.4-1.2-5.1-4.8-4.8-5.5c0.6-0.9,1.8-1.2,2.8-0.8
		c1,0.5,4.8,4.4,4.8,4.4l9.8-5.6l7.6-0.5c0,0-6.7,8.8-7.4,10.3c-0.7,1.5-1.9,4.8-3.2,5.7c-0.7,0.4-1.4,0.8-2.1,1.1l-1.2,2.7L305,54z
		"/>
	<path class="st1" d="M311.3,56.2h-0.1l-6.3-1.8c-0.2-0.1-0.4-0.3-0.3-0.5c0.3-1.1,0.4-2.3,0.3-3.4c-0.1-1-0.1-1.9-0.1-2.9
		c0.1-1.1,0-2.3-0.2-3.4c-0.7-1-1.5-1.8-2.4-2.6c-2-1.9-2.7-2.6-2.4-3.2c0.7-1.1,2.1-1.5,3.4-1c0.9,0.4,3.8,3.3,4.7,4.2l9.5-5.4
		c0.1,0,0.1,0,0.2-0.1l7.7-0.5c0.2,0,0.4,0.2,0.5,0.4c0,0.1,0,0.2-0.1,0.3c-2.3,3-6.8,9.1-7.3,10.2c-0.2,0.3-0.4,0.8-0.6,1.2
		c-0.8,1.7-1.7,3.9-2.8,4.6c-0.6,0.4-1.3,0.8-2,1.1l-1.2,2.5C311.6,56.1,311.5,56.2,311.3,56.2z M305.5,53.6l5.5,1.6l1.1-2.4
		c0-0.1,0.1-0.2,0.2-0.2c0.7-0.3,1.4-0.6,2-1.1c0.9-0.6,1.8-2.8,2.5-4.2c0.2-0.5,0.4-0.9,0.6-1.3c0.6-1.2,5.2-7.4,6.9-9.6l-6.6,0.4
		l-9.7,5.5c-0.2,0.1-0.4,0.1-0.5-0.1c-1.5-1.5-4-4-4.7-4.3c-0.8-0.3-1.6-0.1-2.2,0.5c0.6,0.9,1.3,1.7,2.1,2.4
		c1.4,1.4,2.3,2.3,2.6,2.9c0.3,1.2,0.3,2.4,0.3,3.7c0,0.9,0,1.8,0.1,2.7C305.8,51.4,305.8,52.6,305.5,53.6L305.5,53.6z"/>
	<path class="st0" d="M311.8,41.6c2.2,0.3,4.3,0.9,6.2,2"/>
	<path class="st1" d="M318.1,44c-0.1,0-0.2,0-0.2-0.1c-1.9-1-3.9-1.7-6-1.9c-0.2,0-0.4-0.2-0.4-0.5c0-0.2,0.2-0.4,0.5-0.4
		c2.3,0.3,4.4,1,6.4,2c0.2,0.1,0.3,0.4,0.1,0.6c0,0,0,0,0,0C318.4,43.9,318.2,44,318.1,44z"/>
	<line class="st3" x1="313.6" y1="41.9" x2="320.1" y2="36.6"/>
	<path class="st1" d="M313.6,42.3c-0.2,0-0.4-0.2-0.4-0.4c0-0.1,0.1-0.3,0.2-0.3l6.4-5.3c0.2-0.2,0.4-0.2,0.6,0
		c0.2,0.2,0.2,0.4,0,0.6c0,0,0,0-0.1,0.1l-6.4,5.3C313.8,42.3,313.7,42.3,313.6,42.3z"/>
	<line class="st3" x1="316.3" y1="42.7" x2="322.6" y2="36.5"/>
	<path class="st1" d="M316.3,43.1c-0.1,0-0.2,0-0.3-0.1c-0.2-0.2-0.2-0.4,0-0.6l6.3-6.2c0.2-0.2,0.4-0.2,0.6,0
		c0.2,0.2,0.2,0.4,0,0.6l-6.3,6.2C316.5,43.1,316.4,43.1,316.3,43.1z"/>
	<path class="st0" d="M307.8,42.1c0,0,3.4,3.9,2.7,6.9"/>
	<path class="st1" d="M310.5,49.5L310.5,49.5c-0.3-0.1-0.5-0.3-0.4-0.5c0.6-2.8-2.5-6.5-2.6-6.5c-0.2-0.2-0.2-0.4,0-0.6
		c0.2-0.2,0.4-0.2,0.6,0c0,0,0,0,0,0c0.1,0.2,3.4,4.1,2.7,7.3C310.8,49.3,310.7,49.5,310.5,49.5z"/>
	<path class="st0" d="M288.1,32.4c0,0,4.5,1.7,4.7,5.3l41.7,0.2c0.2-3.7,4.8-5.3,4.8-5.3L288.1,32.4z"/>
	<path class="st1" d="M334.5,38.4L334.5,38.4l-41.7-0.2c-0.2,0-0.4-0.2-0.4-0.4c-0.2-3.4-4.4-5-4.4-5c-0.2-0.1-0.3-0.3-0.3-0.5
		c0-0.2,0.2-0.4,0.4-0.4l0,0l51.2,0.3c0.2,0,0.4,0.1,0.4,0.4c0,0.2-0.1,0.4-0.3,0.5c0,0-4.3,1.6-4.5,4.9
		C334.9,38.2,334.7,38.4,334.5,38.4z M293.2,37.3l40.9,0.2c0.4-1.9,1.6-3.5,3.3-4.4l-47.6-0.2C291.6,33.8,292.8,35.4,293.2,37.3
		L293.2,37.3z"/>
	<path class="st2" d="M238.7,62.8L214.2,77l0.1-16.9l-13.8,0.4c0,0-6.5,26.3-2.6,32.8c3.9,6.6,32.4-2.5,43.1-11.6L238.7,62.8z"/>
	<path class="st2" d="M279,63.1l15.5,6.9l9.6-18.9l11.1,2.7c0,0-6.5,32.8-14.5,32.4c-7.9-0.4-36.8-9.3-36.8-9.3L279,63.1z"/>
	<path class="st1" d="M240.7,120.6c-0.2,0-0.4-0.2-0.4-0.4c-0.1-13.6,2.5-50.5,2.5-50.9c0-0.1,0.1-0.3,0.2-0.3l13-7.6v-4.7
		c0-0.2,0.2-0.4,0.4-0.4c0.2,0,0.4,0.2,0.4,0.4c0,0,0,0,0,0v5c0,0.2-0.1,0.3-0.2,0.4l-13,7.6c-0.2,3.1-2.6,37.6-2.5,50.6
		C241.2,120.4,241,120.6,240.7,120.6L240.7,120.6z"/>
	<circle class="st1" cx="249.5" cy="71.7" r="1.6"/>
	<circle class="st1" cx="262" cy="71.8" r="1.6"/>
	
		<ellipse transform="matrix(0.1602 -0.9871 0.9871 0.1602 204.5665 354.3302)" class="st1" cx="310.5" cy="56.9" rx="1.6" ry="1.6"/>
	<circle class="st1" cx="248.1" cy="92.2" r="1.6"/>
	<circle class="st1" cx="210.6" cy="63.7" r="1.6"/>
	<circle class="st1" cx="258.5" cy="92.3" r="1.6"/>
	<circle class="st1" cx="246.4" cy="111.7" r="1.6"/>
	<circle class="st1" cx="258.7" cy="111.8" r="1.6"/>
	<path class="st1" d="M234.9,111.1c-0.2,0-0.4-0.2-0.4-0.4c-0.4-12.4,3.2-40.4,3.3-40.6c0-0.2,0.2-0.4,0.5-0.4
		c0.2,0,0.4,0.2,0.4,0.5c0,0,0,0,0,0c0,0.3-3.7,28.1-3.3,40.5C235.3,110.9,235.1,111.1,234.9,111.1
		C234.9,111.1,234.9,111.1,234.9,111.1L234.9,111.1z"/>
	<path class="st1" d="M300.7,86.7c-5.2,0-30.7-7.5-31.8-7.8c-0.2-0.1-0.4-0.3-0.3-0.6c0.1-0.2,0.3-0.4,0.6-0.3l0,0
		c0.3,0.1,26.5,7.8,31.5,7.8l0,0c0.2,0,0.4,0.2,0.4,0.4C301.1,86.4,300.9,86.6,300.7,86.7L300.7,86.7z"/>
	<path class="st1" d="M200.1,67.7c-0.2,0-0.4-0.2-0.4-0.4c0-0.2,0.2-0.4,0.4-0.4l12.6-0.5c0.2,0,0.4,0.2,0.4,0.4
		c0,0.2-0.2,0.4-0.4,0.4L200.1,67.7L200.1,67.7z"/>
	<path class="st1" d="M291.3,77c-0.1,0-0.1,0-0.2,0c-0.2-0.1-0.3-0.4-0.2-0.6c0,0,0,0,0,0l10.9-21.9c0.1-0.2,0.4-0.3,0.6-0.2
		c0.2,0.1,0.3,0.4,0.2,0.6l-10.9,21.9C291.7,76.9,291.5,77,291.3,77z"/>
	<path class="st1" d="M312.1,61.8H312l-9.8-2.6c-0.2-0.1-0.4-0.3-0.3-0.5c0.1-0.2,0.3-0.4,0.5-0.3l9.8,2.6c0.2,0,0.4,0.2,0.4,0.5
		S312.3,61.9,312.1,61.8L312.1,61.8z"/>
	<circle class="st0" cx="314.2" cy="15.1" r="2.3"/>
	<path class="st1" d="M314.2,17.8L314.2,17.8c-0.7,0-1.4-0.3-1.9-0.8c-1.1-1.1-1-2.8,0-3.9c0.5-0.5,1.2-0.8,1.9-0.8l0,0
		c1.5,0,2.7,1.2,2.7,2.7l0,0c0,0.7-0.3,1.4-0.8,1.9C315.6,17.5,314.9,17.8,314.2,17.8z M314.2,13.2c-1,0-1.9,0.8-1.9,1.9
		c0,1,0.8,1.9,1.8,1.9c0.5,0,1-0.2,1.3-0.5c0.7-0.7,0.7-1.9,0-2.6C315.1,13.4,314.6,13.2,314.2,13.2L314.2,13.2z M316.4,15.1
		L316.4,15.1z"/>
	<path class="st0" d="M336.5,32.8c-1.9-9.9-11.1-17.4-22.2-17.4s-20.4,7.4-22.4,17.2L336.5,32.8z"/>
	<path class="st1" d="M336.5,33.2L336.5,33.2L291.9,33c-0.2,0-0.4-0.2-0.4-0.4c0,0,0-0.1,0-0.1c2.1-10.2,11.6-17.5,22.7-17.5h0.1
		c11.1,0.1,20.7,7.5,22.6,17.8c0,0.1,0,0.3-0.1,0.4C336.7,33.2,336.6,33.2,336.5,33.2z M292.4,32.2l43.6,0.2
		c-2.1-9.6-11.2-16.5-21.7-16.6h-0.1C303.7,15.8,294.6,22.6,292.4,32.2L292.4,32.2z"/>
	
		<rect x="312.6" y="6.8" transform="matrix(5.061433e-03 -1 1 5.061433e-03 279.6943 345.8797)" class="st0" width="2.1" height="51.2"/>
	<path class="st1" d="M339.3,34L339.3,34L288,33.7c-0.2,0-0.4-0.2-0.4-0.4v-2.1c0-0.2,0.2-0.4,0.4-0.4l0,0l51.2,0.3
		c0.1,0,0.2,0,0.3,0.1c0.1,0.1,0.1,0.2,0.1,0.3v2.1C339.7,33.8,339.5,34,339.3,34z M288.5,32.9l50.3,0.3v-1.2l-50.3-0.3V32.9z"/>
	<path class="st2" d="M438.9,195c-0.6,0-1-0.4-1-1v-42.2c0-4.9-4-9-9-9H84.8c-4.9,0-9,4-9,9v36.3c0,0.6-0.4,1-1,1s-1-0.4-1-1v-36.3
		c0-6.1,4.9-11,11-11h344.1c6.1,0,11,4.9,11,11V194C439.9,194.5,439.4,195,438.9,195z"/>
	<path class="st2" d="M185.8,216.7c-0.6,0-1-0.4-1-1v-74c0-0.6,0.4-1,1-1s1,0.4,1,1v74C186.8,216.3,186.3,216.7,185.8,216.7z"/>
	<path class="st2" d="M289.9,179.1c-0.6,0-1-0.4-1-1v-36.3c0-0.6,0.4-1,1-1s1,0.4,1,1v36.3C290.9,178.7,290.4,179.1,289.9,179.1z"/>
	<path class="st2" d="M356.7,160.5c-0.6,0-1-0.4-1-1v-17.7c0-0.6,0.4-1,1-1s1,0.4,1,1v17.7C357.7,160,357.3,160.5,356.7,160.5z"/>
	<g id="nz65nkpyqwyrm81x2wbj_227_city_buildings_flatline">
		<rect x="48.5" y="199.7" class="st4" width="52.5" height="5.4"/>
		<path class="st1" d="M101,205.6H48.5c-0.4,0-0.7-0.2-0.7-0.5v-5.4c0-0.3,0.3-0.5,0.7-0.5H101c0.4,0,0.7,0.2,0.7,0.5v5.4
			C101.7,205.4,101.4,205.6,101,205.6z M49.2,204.6h51.2v-4.4H49.2L49.2,204.6z"/>
		<rect x="52.7" y="194.2" class="st4" width="48.3" height="5.5"/>
		<path class="st1" d="M101,200.2H52.7c-0.4,0-0.7-0.2-0.7-0.5v-5.4c0-0.3,0.3-0.5,0.7-0.5H101c0.4,0,0.7,0.2,0.7,0.5v5.4
			C101.7,200,101.4,200.2,101,200.2z M53.4,199.2h47v-4.4h-47V199.2z"/>
		<rect x="38.7" y="208.1" class="st0" width="62.3" height="72.3"/>
		<path class="st1" d="M101,280.9H38.7c-0.4,0-0.7-0.1-0.7-0.2v-72.4c0-0.1,0.3-0.2,0.7-0.2H101c0.4,0,0.7,0.1,0.7,0.2v72.4
			C101.7,280.8,101.4,280.9,101,280.9z M39.4,280.5h61v-72h-61V280.5z"/>
		<rect x="90.8" y="204.6" class="st1" width="10.2" height="75.8"/>
		<path class="st1" d="M101,205.6V281H90.8v-75.4H101 M101,205.1H90.8c-0.7,0-1.3,0.2-1.3,0.4V281c0,0.2,0.6,0.4,1.3,0.4H101
			c0.7,0,1.3-0.2,1.3-0.4v-75.4C102.4,205.3,101.8,205.1,101,205.1z"/>
		<rect x="38.7" y="205.6" class="st4" width="52.1" height="4.9"/>
		<path class="st1" d="M90.8,211H38.7c-0.4,0-0.7-0.2-0.7-0.5v-4.9c0-0.3,0.3-0.5,0.7-0.5h52.1c0.4,0,0.7,0.2,0.7,0.5v4.9
			C91.5,210.8,91.2,211,90.8,211z M39.4,210h50.8v-3.9H39.4V210z"/>
		<rect x="38.7" y="221" class="st4" width="52.1" height="4.9"/>
		<path class="st1" d="M90.8,226.3H38.7c-0.4,0-0.7-0.2-0.7-0.5V221c0-0.3,0.3-0.5,0.7-0.5h52.1c0.4,0,0.7,0.2,0.7,0.5v4.8
			C91.5,226.1,91.3,226.3,90.8,226.3C90.9,226.3,90.9,226.3,90.8,226.3z M39.4,225.3h50.8v-3.9H39.4V225.3z"/>
		<rect x="38.7" y="236.3" class="st4" width="52.1" height="4.9"/>
		<path class="st1" d="M90.8,241.7H38.7c-0.4,0-0.7-0.2-0.7-0.5v-4.9c0-0.3,0.3-0.5,0.7-0.5h52.1c0.4,0,0.7,0.2,0.7,0.5v4.9
			C91.5,241.4,91.2,241.7,90.8,241.7z M39.4,240.7h50.8v-3.9H39.4V240.7z"/>
		<rect x="38.7" y="251.6" class="st4" width="52.1" height="4.9"/>
		<path class="st1" d="M90.8,257H38.7c-0.4,0-0.7-0.2-0.7-0.5v-4.9c0-0.3,0.3-0.5,0.7-0.5h52.1c0.4,0,0.7,0.2,0.7,0.5v4.9
			C91.5,256.8,91.2,257,90.8,257z M39.4,256h50.8v-3.9H39.4V256z"/>
		<rect x="38.7" y="266.9" class="st4" width="52.1" height="4.9"/>
		<path class="st1" d="M90.8,272.3H38.7c-0.4,0-0.7-0.2-0.7-0.5v-4.9c0-0.3,0.3-0.5,0.7-0.5h52.1c0.4,0,0.7,0.2,0.7,0.5v4.9
			C91.5,272.1,91.2,272.3,90.8,272.3z M39.4,271.3h50.8v-3.9H39.4V271.3z"/>
		<rect x="133.4" y="221.9" class="st0" width="104.8" height="2.9"/>
		<path class="st1" d="M238.2,225.2H133.4c-0.4,0-0.7-0.2-0.7-0.5v-2.9c0-0.3,0.3-0.5,0.7-0.5h104.8c0.4,0,0.7,0.2,0.7,0.5v2.9
			C238.8,225,238.5,225.2,238.2,225.2z M134,224.2h103.5v-1.9H134L134,224.2z"/>
		<rect x="125.8" y="226" class="st1" width="119.9" height="54.4"/>
		<path class="st1" d="M245.7,226v54.4H125.8V226H245.7 M245.7,225H125.8c-0.7,0-1.3,0.4-1.3,1v54.4c0,0.6,0.6,1,1.3,1h119.9
			c0.7,0,1.3-0.4,1.3-1V226C247.1,225.4,246.5,225,245.7,225z"/>
		<rect x="125.8" y="234.1" class="st4" width="119.9" height="4.9"/>
		<path class="st1" d="M245.7,239.5H125.8c-0.4,0-0.7-0.2-0.7-0.5v-4.9c0-0.3,0.3-0.5,0.7-0.5h119.9c0.4,0,0.7,0.2,0.7,0.5v4.9
			C246.4,239.3,246.1,239.5,245.7,239.5z M126.5,238.5H245v-3.9H126.5L126.5,238.5z"/>
		<path class="st1" d="M134.9,239.5c-0.4,0-0.7-0.2-0.7-0.5v-4.9c0-0.3,0.3-0.5,0.7-0.5s0.7,0.2,0.7,0.5v4.9
			C135.5,239.3,135.2,239.5,134.9,239.5z"/>
		<rect x="143.6" y="234.1" class="st1" width="1.3" height="4.9"/>
		<rect x="153" y="234.1" class="st1" width="1.3" height="4.9"/>
		<rect x="162.4" y="234.1" class="st1" width="1.3" height="4.9"/>
		<rect x="171.7" y="234.1" class="st1" width="1.3" height="4.9"/>
		<rect x="181.1" y="234.1" class="st1" width="1.3" height="4.9"/>
		<rect x="190.5" y="234.1" class="st1" width="1.3" height="4.9"/>
		<rect x="199.9" y="234.1" class="st1" width="1.3" height="4.9"/>
		<rect x="209.3" y="234.1" class="st1" width="1.3" height="4.9"/>
		<rect x="218.6" y="234.1" class="st1" width="1.3" height="4.9"/>
		<rect x="228" y="234.1" class="st1" width="1.3" height="4.9"/>
		<rect x="237.4" y="234.1" class="st1" width="1.3" height="4.9"/>
		<rect x="125.8" y="245.2" class="st4" width="119.9" height="4.9"/>
		<path class="st1" d="M245.7,250.6H125.8c-0.4,0-0.7-0.2-0.7-0.5v-4.9c0-0.3,0.3-0.5,0.7-0.5h119.9c0.4,0,0.7,0.2,0.7,0.5v4.9
			C246.4,250.4,246.1,250.6,245.7,250.6z M126.5,249.6H245v-3.9H126.5L126.5,249.6z"/>
		<path class="st1" d="M134.9,250.6c-0.4,0-0.7-0.2-0.7-0.5v-4.9c0-0.3,0.3-0.5,0.7-0.5s0.7,0.2,0.7,0.5v4.9
			C135.5,250.4,135.2,250.6,134.9,250.6z"/>
		<rect x="143.6" y="245.2" class="st1" width="1.3" height="4.9"/>
		<rect x="153" y="245.2" class="st1" width="1.3" height="4.9"/>
		<rect x="162.4" y="245.2" class="st1" width="1.3" height="4.9"/>
		<rect x="171.7" y="245.2" class="st1" width="1.3" height="4.9"/>
		<rect x="181.1" y="245.2" class="st1" width="1.3" height="4.9"/>
		<rect x="190.5" y="245.2" class="st1" width="1.3" height="4.9"/>
		<rect x="199.9" y="245.2" class="st1" width="1.3" height="4.9"/>
		<rect x="209.3" y="245.2" class="st1" width="1.3" height="4.9"/>
		<rect x="218.6" y="245.2" class="st1" width="1.3" height="4.9"/>
		<rect x="228" y="245.2" class="st1" width="1.3" height="4.9"/>
		<rect x="237.4" y="245.2" class="st1" width="1.3" height="4.9"/>
		<rect x="125.8" y="256.3" class="st4" width="119.9" height="4.9"/>
		<path class="st1" d="M245.7,261.7H125.8c-0.4,0-0.7-0.2-0.7-0.5v-4.9c0-0.3,0.3-0.5,0.7-0.5h119.9c0.4,0,0.7,0.2,0.7,0.5v4.9
			C246.4,261.5,246.1,261.7,245.7,261.7z M126.5,260.7H245v-3.9H126.5L126.5,260.7z"/>
		<path class="st1" d="M134.9,261.7c-0.4,0-0.7-0.2-0.7-0.5v-4.9c0-0.3,0.3-0.5,0.7-0.5s0.7,0.2,0.7,0.5v4.9
			C135.5,261.5,135.2,261.7,134.9,261.7z"/>
		<rect x="143.6" y="256.3" class="st1" width="1.3" height="4.9"/>
		<rect x="153" y="256.3" class="st1" width="1.3" height="4.9"/>
		<rect x="162.4" y="256.3" class="st1" width="1.3" height="4.9"/>
		<rect x="171.7" y="256.3" class="st1" width="1.3" height="4.9"/>
		<rect x="181.1" y="256.3" class="st1" width="1.3" height="4.9"/>
		<rect x="190.5" y="256.3" class="st1" width="1.3" height="4.9"/>
		<rect x="199.9" y="256.3" class="st1" width="1.3" height="4.9"/>
		<rect x="209.3" y="256.3" class="st1" width="1.3" height="4.9"/>
		<rect x="218.6" y="256.3" class="st1" width="1.3" height="4.9"/>
		<rect x="228" y="256.3" class="st1" width="1.3" height="4.9"/>
		<rect x="237.4" y="256.3" class="st1" width="1.3" height="4.9"/>
		<rect x="125.8" y="267.4" class="st4" width="119.9" height="4.9"/>
		<path class="st1" d="M245.7,272.8H125.8c-0.4,0-0.7-0.2-0.7-0.5v-4.9c0-0.3,0.3-0.5,0.7-0.5h119.9c0.4,0,0.7,0.2,0.7,0.5v4.9
			C246.4,272.6,246.1,272.8,245.7,272.8z M126.5,271.8H245v-3.9H126.5L126.5,271.8z"/>
		<path class="st1" d="M134.9,272.8c-0.4,0-0.7-0.2-0.7-0.5v-4.9c0-0.3,0.3-0.5,0.7-0.5s0.7,0.2,0.7,0.5v4.9
			C135.5,272.6,135.2,272.8,134.9,272.8z"/>
		<rect x="143.6" y="267.4" class="st1" width="1.3" height="4.9"/>
		<rect x="153" y="267.4" class="st1" width="1.3" height="4.9"/>
		<rect x="162.4" y="267.4" class="st1" width="1.3" height="4.9"/>
		<rect x="171.7" y="267.4" class="st1" width="1.3" height="4.9"/>
		<rect x="181.1" y="267.4" class="st1" width="1.3" height="4.9"/>
		<rect x="190.5" y="267.4" class="st1" width="1.3" height="4.9"/>
		<rect x="199.9" y="267.4" class="st1" width="1.3" height="4.9"/>
		<rect x="209.3" y="267.4" class="st1" width="1.3" height="4.9"/>
		<rect x="218.6" y="267.4" class="st1" width="1.3" height="4.9"/>
		<rect x="228" y="267.4" class="st1" width="1.3" height="4.9"/>
		<rect x="237.4" y="267.4" class="st1" width="1.3" height="4.9"/>
		<rect x="411.3" y="200.4" class="st0" width="55.1" height="80"/>
		<path class="st1" d="M466.4,280.9h-55.1c-0.4,0-0.7-0.1-0.7-0.3v-81.1c0-0.1,0.3-0.3,0.7-0.3h55.1c0.4,0,0.7,0.1,0.7,0.3v81.1
			C467.1,280.8,466.8,280.9,466.4,280.9z M412,280.4h53.7v-80.6H412V280.4z"/>
		<rect x="420" y="200.4" class="st4" width="37.6" height="52.9"/>
		<path class="st1" d="M457.7,253.8H420c-0.4,0-0.7-0.1-0.7-0.2v-53.5c0-0.1,0.3-0.2,0.7-0.2h37.6c0.4,0,0.7,0.1,0.7,0.2v53.5
			C458.4,253.7,458.1,253.8,457.7,253.8C457.7,253.8,457.7,253.8,457.7,253.8z M420.7,253.4H457v-53.1h-36.3V253.4z"/>
		<path class="st1" d="M420,280.9h-8.7c-0.4,0-0.7-0.1-0.7-0.3v-80.6c0-0.1,0.3-0.3,0.7-0.3h8.7c0.4,0,0.7,0.1,0.7,0.3v80.6
			C420.7,280.8,420.4,280.9,420,280.9z M412,280.4h7.4v-80.1H412V280.4z"/>
		<path class="st1" d="M457.7,200.4H420c-0.4,0-0.7-0.2-0.7-0.5s0.3-0.5,0.7-0.5h37.6c0.4,0,0.7,0.2,0.7,0.5S458,200.4,457.7,200.4z
			"/>
		<path class="st1" d="M457.7,206.4H420c-0.4,0-0.7-0.2-0.7-0.5s0.3-0.5,0.7-0.5h37.6c0.4,0,0.7,0.2,0.7,0.5S458,206.4,457.7,206.4z
			"/>
		<path class="st1" d="M457.7,212.3H420c-0.4,0-0.7-0.2-0.7-0.5s0.3-0.5,0.7-0.5h37.6c0.4,0,0.7,0.2,0.7,0.5S458,212.3,457.7,212.3z
			"/>
		<path class="st1" d="M457.7,218.2H420c-0.4,0-0.7-0.2-0.7-0.5s0.3-0.5,0.7-0.5h37.6c0.4,0,0.7,0.2,0.7,0.5S458,218.2,457.7,218.2z
			"/>
		<path class="st1" d="M457.7,224.1H420c-0.4,0-0.7-0.2-0.7-0.5s0.3-0.5,0.7-0.5h37.6c0.4,0,0.7,0.2,0.7,0.5S458,224.1,457.7,224.1z
			"/>
		<path class="st1" d="M457.7,230.1H420c-0.4,0-0.7-0.2-0.7-0.5s0.3-0.5,0.7-0.5h37.6c0.4,0,0.7,0.2,0.7,0.5S458,230.1,457.7,230.1z
			"/>
		<path class="st1" d="M457.7,236H420c-0.4,0-0.7-0.2-0.7-0.5s0.3-0.5,0.7-0.5h37.6c0.4,0,0.7,0.2,0.7,0.5S458,236,457.7,236z"/>
		<path class="st1" d="M457.7,241.9H420c-0.4,0-0.7-0.2-0.7-0.5s0.3-0.5,0.7-0.5h37.6c0.4,0,0.7,0.2,0.7,0.5S458,241.9,457.7,241.9z
			"/>
		<path class="st1" d="M457.7,247.9H420c-0.4,0-0.7-0.2-0.7-0.5s0.3-0.5,0.7-0.5h37.6c0.4,0,0.7,0.2,0.7,0.5S458,247.9,457.7,247.9z
			"/>
		<path class="st1" d="M457.7,253.8H420c-0.4,0-0.7-0.2-0.7-0.5s0.3-0.5,0.7-0.5h37.6c0.4,0,0.7,0.2,0.7,0.5S458,253.8,457.7,253.8z
			"/>
		<rect x="420" y="253.3" class="st1" width="37.6" height="27.1"/>
		<rect x="276.9" y="184.3" class="st4" width="26" height="96.1"/>
		<path class="st1" d="M302.9,280.9h-26c-0.4,0-0.7-0.2-0.7-0.5v-96.1c0-0.3,0.3-0.5,0.7-0.5h26c0.4,0,0.7,0.2,0.7,0.5v96.1
			C303.6,280.7,303.3,280.9,302.9,280.9z M277.5,279.9h24.7v-95.1h-24.7L277.5,279.9z"/>
		<rect x="271.9" y="184.3" class="st0" width="4.9" height="96.1"/>
		<path class="st1" d="M276.9,280.9h-4.9c-0.4,0-0.7-0.2-0.7-0.5v-96.1c0-0.3,0.3-0.5,0.7-0.5h4.9c0.4,0,0.7,0.2,0.7,0.5v96.1
			C277.5,280.7,277.2,280.9,276.9,280.9z M272.6,279.9h3.6v-95.1h-3.6L272.6,279.9z"/>
		<rect x="302.9" y="184.3" class="st0" width="4.9" height="96.1"/>
		<path class="st1" d="M307.9,280.9h-5c-0.4,0-0.7-0.2-0.7-0.5v-96.1c0-0.3,0.3-0.5,0.7-0.5h5c0.4,0,0.7,0.2,0.7,0.5v96.1
			C308.5,280.7,308.2,280.9,307.9,280.9z M303.6,279.9h3.6v-95.1h-3.6V279.9z"/>
		<path class="st1" d="M282.8,262.7c-0.4,0-0.7-0.2-0.7-0.5v-77.9c0-0.3,0.3-0.5,0.7-0.5c0.4,0,0.7,0.2,0.7,0.5v77.9
			C283.5,262.5,283.2,262.7,282.8,262.7z"/>
		<path class="st1" d="M289.9,262.7c-0.4,0-0.7-0.2-0.7-0.5v-77.9c0-0.3,0.3-0.5,0.7-0.5c0.4,0,0.7,0.2,0.7,0.5v77.9
			C290.6,262.5,290.3,262.7,289.9,262.7z"/>
		<path class="st1" d="M297,262.7c-0.4,0-0.7-0.2-0.7-0.5v-77.9c0-0.3,0.3-0.5,0.7-0.5c0.4,0,0.7,0.2,0.7,0.5v77.9
			C297.6,262.5,297.3,262.7,297,262.7z"/>
		<rect x="276.9" y="204.3" class="st1" width="26" height="3.4"/>
		<rect x="276.9" y="223" class="st1" width="26" height="3.4"/>
		<rect x="276.9" y="241.8" class="st1" width="26" height="3.4"/>
		<rect x="276.9" y="260.5" class="st1" width="26" height="3.4"/>
		<rect x="328" y="165.4" class="st0" width="57.4" height="3.7"/>
		<path class="st1" d="M385.4,169.5H328c-0.4,0-0.7-0.2-0.7-0.5v-3.7c0-0.3,0.3-0.5,0.7-0.5h57.4c0.4,0,0.7,0.2,0.7,0.5v3.7
			C386.1,169.3,385.8,169.5,385.4,169.5z M328.7,168.5h56.1v-2.7h-56.1V168.5z"/>
		<rect x="332.7" y="169" class="st0" width="48.1" height="3.5"/>
		<path class="st1" d="M380.8,173.1h-48.1c-0.4,0-0.7-0.2-0.7-0.5V169c0-0.3,0.3-0.5,0.7-0.5h48.1c0.4,0,0.7,0.2,0.7,0.5v3.5
			C381.5,172.8,381.2,173.1,380.8,173.1z M333.3,172.1h46.8v-2.5h-46.8L333.3,172.1z"/>
		<rect x="332.7" y="169" class="st1" width="48.1" height="3.5"/>
		<rect x="332.7" y="172.6" class="st0" width="48.1" height="9.9"/>
		<path class="st1" d="M380.8,182.9h-48.1c-0.4,0-0.7-0.2-0.7-0.5v-9.9c0-0.3,0.3-0.5,0.7-0.5h48.1c0.4,0,0.7,0.2,0.7,0.5v9.9
			C381.5,182.7,381.2,182.9,380.8,182.9z M333.3,181.9h46.8v-8.9h-46.8L333.3,181.9z"/>
		<rect x="332.7" y="172.6" class="st4" width="48.1" height="9.9"/>
		<path class="st1" d="M380.8,182.9h-48.1c-0.4,0-0.7-0.2-0.7-0.5v-9.9c0-0.3,0.3-0.5,0.7-0.5h48.1c0.4,0,0.7,0.2,0.7,0.5v9.9
			C381.5,182.7,381.2,182.9,380.8,182.9z M333.3,181.9h46.8v-8.9h-46.8L333.3,181.9z"/>
		<path class="st1" d="M344.4,182.9c-0.4,0-0.7-0.2-0.7-0.5v-9.9c0-0.3,0.3-0.5,0.7-0.5c0.4,0,0.7,0.2,0.7,0.5v9.9
			C345.1,182.7,344.8,182.9,344.4,182.9z"/>
		<path class="st1" d="M356.7,182.9c-0.4,0-0.7-0.2-0.7-0.5v-9.9c0-0.3,0.3-0.5,0.7-0.5c0.4,0,0.7,0.2,0.7,0.5v9.9
			C357.4,182.7,357.1,182.9,356.7,182.9z"/>
		<path class="st1" d="M369,182.9c-0.4,0-0.7-0.2-0.7-0.5v-9.9c0-0.3,0.3-0.5,0.7-0.5c0.4,0,0.7,0.2,0.7,0.5v9.9
			C369.7,182.7,369.4,182.9,369,182.9z"/>
		<rect x="328" y="181.7" class="st0" width="57.4" height="3.7"/>
		<path class="st1" d="M385.4,185.9H328c-0.4,0-0.7-0.2-0.7-0.5v-3.7c0-0.3,0.3-0.5,0.7-0.5h57.4c0.4,0,0.7,0.2,0.7,0.5v3.7
			C386.1,185.7,385.8,185.9,385.4,185.9C385.4,185.9,385.4,185.9,385.4,185.9z M328.7,184.9h56.1v-2.7h-56.1V184.9z"/>
		<rect x="332.7" y="185.4" class="st0" width="48.1" height="3.5"/>
		<path class="st1" d="M380.8,189.4h-48.1c-0.4,0-0.7-0.2-0.7-0.5v-3.5c0-0.3,0.3-0.5,0.7-0.5h48.1c0.4,0,0.7,0.2,0.7,0.5v3.5
			C381.5,189.2,381.2,189.4,380.8,189.4z M333.3,188.4h46.8v-2.5h-46.8L333.3,188.4z"/>
		<rect x="332.7" y="185.4" class="st1" width="48.1" height="3.5"/>
		<rect x="332.7" y="188.9" class="st0" width="48.1" height="9.9"/>
		<path class="st1" d="M380.8,199.3h-48.1c-0.4,0-0.7-0.2-0.7-0.5v-9.9c0-0.3,0.3-0.5,0.7-0.5h48.1c0.4,0,0.7,0.2,0.7,0.5v9.9
			C381.4,199.1,381.1,199.3,380.8,199.3z M333.3,198.3h46.8v-8.9h-46.8L333.3,198.3z"/>
		<rect x="332.7" y="188.9" class="st4" width="48.1" height="9.9"/>
		<path class="st1" d="M380.8,199.3h-48.1c-0.4,0-0.7-0.2-0.7-0.5v-9.9c0-0.3,0.3-0.5,0.7-0.5h48.1c0.4,0,0.7,0.2,0.7,0.5v9.9
			C381.4,199.1,381.1,199.3,380.8,199.3z M333.3,198.3h46.8v-8.9h-46.8L333.3,198.3z"/>
		<path class="st1" d="M344.4,199.3c-0.4,0-0.7-0.2-0.7-0.5v-9.9c0-0.3,0.3-0.5,0.7-0.5c0.4,0,0.7,0.2,0.7,0.5v9.9
			C345,199.1,344.7,199.3,344.4,199.3z"/>
		<path class="st1" d="M356.7,199.3c-0.4,0-0.7-0.2-0.7-0.5v-9.9c0-0.3,0.3-0.5,0.7-0.5c0.4,0,0.7,0.2,0.7,0.5v9.9
			C357.4,199.1,357.1,199.3,356.7,199.3z"/>
		<path class="st1" d="M369,199.3c-0.4,0-0.7-0.2-0.7-0.5v-9.9c0-0.3,0.3-0.5,0.7-0.5c0.4,0,0.7,0.2,0.7,0.5v9.9
			C369.6,199.1,369.4,199.3,369,199.3z"/>
		<rect x="328" y="198" class="st0" width="57.4" height="3.7"/>
		<path class="st1" d="M385.4,202.2H328c-0.4,0-0.7-0.2-0.7-0.5V198c0-0.3,0.3-0.5,0.7-0.5h57.4c0.4,0,0.7,0.2,0.7,0.5v3.7
			C386.1,202,385.8,202.2,385.4,202.2z M328.7,201.2h56.1v-2.7h-56.1V201.2z"/>
		<rect x="332.7" y="201.7" class="st0" width="48.1" height="3.5"/>
		<path class="st1" d="M380.8,205.7h-48.1c-0.4,0-0.7-0.2-0.7-0.5v-3.5c0-0.3,0.3-0.5,0.7-0.5h48.1c0.4,0,0.7,0.2,0.7,0.5v3.5
			C381.5,205.5,381.2,205.7,380.8,205.7C380.8,205.7,380.8,205.7,380.8,205.7z M333.3,204.7h46.8v-2.5h-46.8L333.3,204.7z"/>
		<rect x="332.7" y="201.7" class="st1" width="48.1" height="3.5"/>
		<rect x="332.7" y="205.2" class="st0" width="48.1" height="9.9"/>
		<path class="st1" d="M380.8,215.6h-48.1c-0.4,0-0.7-0.2-0.7-0.5v-9.9c0-0.3,0.3-0.5,0.7-0.5h48.1c0.4,0,0.7,0.2,0.7,0.5v9.9
			C381.5,215.4,381.2,215.6,380.8,215.6z M333.3,214.6h46.8v-8.9h-46.8L333.3,214.6z"/>
		<rect x="332.7" y="205.2" class="st4" width="48.1" height="9.9"/>
		<path class="st1" d="M380.8,215.6h-48.1c-0.4,0-0.7-0.2-0.7-0.5v-9.9c0-0.3,0.3-0.5,0.7-0.5h48.1c0.4,0,0.7,0.2,0.7,0.5v9.9
			C381.5,215.4,381.2,215.6,380.8,215.6z M333.3,214.6h46.8v-8.9h-46.8L333.3,214.6z"/>
		<path class="st1" d="M344.4,215.6c-0.4,0-0.7-0.2-0.7-0.5v-9.9c0-0.3,0.3-0.5,0.7-0.5c0.4,0,0.7,0.2,0.7,0.5v9.9
			C345.1,215.4,344.8,215.6,344.4,215.6z"/>
		<path class="st1" d="M356.7,215.6c-0.4,0-0.7-0.2-0.7-0.5v-9.9c0-0.3,0.3-0.5,0.7-0.5c0.4,0,0.7,0.2,0.7,0.5v9.9
			C357.4,215.4,357.1,215.6,356.7,215.6z"/>
		<path class="st1" d="M369,215.6c-0.4,0-0.7-0.2-0.7-0.5v-9.9c0-0.3,0.3-0.5,0.7-0.5c0.4,0,0.7,0.2,0.7,0.5v9.9
			C369.7,215.4,369.4,215.6,369,215.6z"/>
		<rect x="328" y="214.4" class="st0" width="57.4" height="3.7"/>
		<path class="st1" d="M385.4,218.5H328c-0.4,0-0.7-0.2-0.7-0.5v-3.7c0-0.3,0.3-0.5,0.7-0.5h57.4c0.4,0,0.7,0.2,0.7,0.5v3.7
			C386.1,218.3,385.8,218.5,385.4,218.5z M328.7,217.5h56.1v-2.7h-56.1V217.5z"/>
		<rect x="332.7" y="218" class="st0" width="48.1" height="3.5"/>
		<path class="st1" d="M380.8,222h-48.1c-0.4,0-0.7-0.2-0.7-0.5V218c0-0.3,0.3-0.5,0.7-0.5h48.1c0.4,0,0.7,0.2,0.7,0.5v3.5
			C381.5,221.8,381.2,222,380.8,222z M333.3,221h46.8v-2.5h-46.8L333.3,221z"/>
		<rect x="332.7" y="218" class="st1" width="48.1" height="3.5"/>
		<rect x="332.7" y="221.5" class="st0" width="48.1" height="9.9"/>
		<path class="st1" d="M380.8,231.9h-48.1c-0.4,0-0.7-0.2-0.7-0.5v-9.9c0-0.3,0.3-0.5,0.7-0.5h48.1c0.4,0,0.7,0.2,0.7,0.5v9.9
			C381.5,231.7,381.2,231.9,380.8,231.9z M333.3,230.9h46.8V222h-46.8L333.3,230.9z"/>
		<rect x="332.7" y="221.5" class="st4" width="48.1" height="9.9"/>
		<path class="st1" d="M380.8,231.9h-48.1c-0.4,0-0.7-0.2-0.7-0.5v-9.9c0-0.3,0.3-0.5,0.7-0.5h48.1c0.4,0,0.7,0.2,0.7,0.5v9.9
			C381.5,231.7,381.2,231.9,380.8,231.9z M333.3,230.9h46.8V222h-46.8L333.3,230.9z"/>
		<path class="st1" d="M344.4,231.9c-0.4,0-0.7-0.2-0.7-0.5v-9.9c0-0.3,0.3-0.5,0.7-0.5c0.4,0,0.7,0.2,0.7,0.5v9.9
			C345.1,231.7,344.8,231.9,344.4,231.9z"/>
		<path class="st1" d="M356.7,231.9c-0.4,0-0.7-0.2-0.7-0.5v-9.9c0-0.3,0.3-0.5,0.7-0.5c0.4,0,0.7,0.2,0.7,0.5v9.9
			C357.4,231.7,357.1,231.9,356.7,231.9z"/>
		<path class="st1" d="M369,231.9c-0.4,0-0.7-0.2-0.7-0.5v-9.9c0-0.3,0.3-0.5,0.7-0.5c0.4,0,0.7,0.2,0.7,0.5v9.9
			C369.7,231.7,369.4,231.9,369,231.9z"/>
		<rect x="328" y="230.7" class="st0" width="57.4" height="3.7"/>
		<path class="st1" d="M385.4,234.9H328c-0.4,0-0.7-0.2-0.7-0.5v-3.7c0-0.3,0.3-0.5,0.7-0.5h57.4c0.4,0,0.7,0.2,0.7,0.5v3.7
			C386.1,234.6,385.8,234.9,385.4,234.9z M328.7,233.9h56.1v-2.7h-56.1V233.9z"/>
		<rect x="332.7" y="234.4" class="st0" width="48.1" height="3.5"/>
		<path class="st1" d="M380.8,238.4h-48.1c-0.4,0-0.7-0.2-0.7-0.5v-3.5c0-0.3,0.3-0.5,0.7-0.5h48.1c0.4,0,0.7,0.2,0.7,0.5v3.5
			C381.5,238.2,381.2,238.4,380.8,238.4z M333.3,237.4h46.8v-2.5h-46.8L333.3,237.4z"/>
		<rect x="332.7" y="234.4" class="st1" width="48.1" height="3.5"/>
		<rect x="332.7" y="237.9" class="st0" width="48.1" height="9.9"/>
		<path class="st1" d="M380.8,248.2h-48.1c-0.4,0-0.7-0.2-0.7-0.5v-9.9c0-0.3,0.3-0.5,0.7-0.5h48.1c0.4,0,0.7,0.2,0.7,0.5v9.9
			C381.5,248,381.2,248.2,380.8,248.2z M333.3,247.2h46.8v-8.9h-46.8L333.3,247.2z"/>
		<rect x="332.7" y="237.9" class="st4" width="48.1" height="9.9"/>
		<path class="st1" d="M380.8,248.2h-48.1c-0.4,0-0.7-0.2-0.7-0.5v-9.9c0-0.3,0.3-0.5,0.7-0.5h48.1c0.4,0,0.7,0.2,0.7,0.5v9.9
			C381.5,248,381.2,248.2,380.8,248.2z M333.3,247.2h46.8v-8.9h-46.8L333.3,247.2z"/>
		<path class="st1" d="M344.4,248.2c-0.4,0-0.7-0.2-0.7-0.5v-9.9c0-0.3,0.3-0.5,0.7-0.5c0.4,0,0.7,0.2,0.7,0.5v9.9
			C345.1,248,344.8,248.2,344.4,248.2z"/>
		<path class="st1" d="M356.7,248.2c-0.4,0-0.7-0.2-0.7-0.5v-9.9c0-0.3,0.3-0.5,0.7-0.5c0.4,0,0.7,0.2,0.7,0.5v9.9
			C357.4,248,357.1,248.2,356.7,248.2z"/>
		<path class="st1" d="M369,248.2c-0.4,0-0.7-0.2-0.7-0.5v-9.9c0-0.3,0.3-0.5,0.7-0.5c0.4,0,0.7,0.2,0.7,0.5v9.9
			C369.7,248,369.4,248.2,369,248.2z"/>
		<rect x="328" y="247" class="st0" width="57.4" height="3.7"/>
		<path class="st1" d="M385.4,251.2H328c-0.4,0-0.7-0.2-0.7-0.5V247c0-0.3,0.3-0.5,0.7-0.5h57.4c0.4,0,0.7,0.2,0.7,0.5v3.7
			C386.1,251,385.8,251.2,385.4,251.2z M328.7,250.2h56.1v-2.7h-56.1V250.2z"/>
		<rect x="332.7" y="250.7" class="st0" width="48.1" height="3.5"/>
		<path class="st1" d="M380.8,254.7h-48.1c-0.4,0-0.7-0.2-0.7-0.5v-3.5c0-0.3,0.3-0.5,0.7-0.5h48.1c0.4,0,0.7,0.2,0.7,0.5v3.5
			C381.5,254.5,381.2,254.7,380.8,254.7z M333.3,253.7h46.8v-2.5h-46.8L333.3,253.7z"/>
		<rect x="332.7" y="250.7" class="st1" width="48.1" height="3.5"/>
		<rect x="332.7" y="254.2" class="st0" width="48.1" height="9.9"/>
		<path class="st1" d="M380.8,264.6h-48.1c-0.4,0-0.7-0.2-0.7-0.5v-9.9c0-0.3,0.3-0.5,0.7-0.5h48.1c0.4,0,0.7,0.2,0.7,0.5v9.9
			C381.5,264.4,381.2,264.6,380.8,264.6C380.8,264.6,380.8,264.6,380.8,264.6z M333.3,263.6h46.8v-8.9h-46.8L333.3,263.6z"/>
		<rect x="332.7" y="254.2" class="st4" width="48.1" height="9.9"/>
		<path class="st1" d="M380.8,264.6h-48.1c-0.4,0-0.7-0.2-0.7-0.5v-9.9c0-0.3,0.3-0.5,0.7-0.5h48.1c0.4,0,0.7,0.2,0.7,0.5v9.9
			C381.5,264.4,381.2,264.6,380.8,264.6C380.8,264.6,380.8,264.6,380.8,264.6z M333.3,263.6h46.8v-8.9h-46.8L333.3,263.6z"/>
		<path class="st1" d="M344.4,264.6c-0.4,0-0.7-0.2-0.7-0.5v-9.9c0-0.3,0.3-0.5,0.7-0.5c0.4,0,0.7,0.2,0.7,0.5v9.9
			C345.1,264.4,344.8,264.6,344.4,264.6C344.4,264.6,344.4,264.6,344.4,264.6z"/>
		<path class="st1" d="M356.7,264.6c-0.4,0-0.7-0.2-0.7-0.5v-9.9c0-0.3,0.3-0.5,0.7-0.5c0.4,0,0.7,0.2,0.7,0.5v9.9
			C357.4,264.4,357.1,264.6,356.7,264.6C356.7,264.6,356.7,264.6,356.7,264.6z"/>
		<path class="st1" d="M369,264.6c-0.4,0-0.7-0.2-0.7-0.5v-9.9c0-0.3,0.3-0.5,0.7-0.5c0.4,0,0.7,0.2,0.7,0.5v9.9
			C369.7,264.4,369.4,264.6,369,264.6C369,264.6,369,264.6,369,264.6z"/>
		<rect x="328" y="263.4" class="st0" width="57.4" height="3.7"/>
		<path class="st1" d="M385.4,267.5H328c-0.4,0-0.7-0.2-0.7-0.5v-3.7c0-0.3,0.3-0.5,0.7-0.5h57.4c0.4,0,0.7,0.2,0.7,0.5v3.7
			C386.1,267.3,385.8,267.5,385.4,267.5z M328.7,266.5h56.1v-2.7h-56.1V266.5z"/>
		<rect x="332.7" y="267" class="st0" width="48.1" height="3.5"/>
		<path class="st1" d="M380.8,271h-48.1c-0.4,0-0.7-0.2-0.7-0.5V267c0-0.3,0.3-0.5,0.7-0.5h48.1c0.4,0,0.7,0.2,0.7,0.5v3.5
			C381.5,270.8,381.2,271,380.8,271z M333.3,270h46.8v-2.5h-46.8L333.3,270z"/>
		<rect x="332.7" y="267" class="st1" width="48.1" height="3.5"/>
		<rect x="332.7" y="270.5" class="st0" width="48.1" height="9.9"/>
		<path class="st1" d="M380.8,280.9h-48.1c-0.4,0-0.7-0.2-0.7-0.5v-9.9c0-0.3,0.3-0.5,0.7-0.5h48.1c0.4,0,0.7,0.2,0.7,0.5v9.9
			C381.5,280.7,381.2,280.9,380.8,280.9z M333.3,279.9h46.8V271h-46.8L333.3,279.9z"/>
		<rect x="332.7" y="270.5" class="st4" width="48.1" height="9.9"/>
		<path class="st1" d="M380.8,280.9h-48.1c-0.4,0-0.7-0.2-0.7-0.5v-9.9c0-0.3,0.3-0.5,0.7-0.5h48.1c0.4,0,0.7,0.2,0.7,0.5v9.9
			C381.5,280.7,381.2,280.9,380.8,280.9z M333.3,279.9h46.8V271h-46.8L333.3,279.9z"/>
		<path class="st1" d="M344.4,280.9c-0.4,0-0.7-0.2-0.7-0.5v-9.9c0-0.3,0.3-0.5,0.7-0.5c0.4,0,0.7,0.2,0.7,0.5v9.9
			C345.1,280.7,344.8,280.9,344.4,280.9z"/>
		<path class="st1" d="M356.7,280.9c-0.4,0-0.7-0.2-0.7-0.5v-9.9c0-0.3,0.3-0.5,0.7-0.5c0.4,0,0.7,0.2,0.7,0.5v9.9
			C357.4,280.7,357.1,280.9,356.7,280.9z"/>
		<path class="st1" d="M369,280.9c-0.4,0-0.7-0.2-0.7-0.5v-9.9c0-0.3,0.3-0.5,0.7-0.5c0.4,0,0.7,0.2,0.7,0.5v9.9
			C369.7,280.7,369.4,280.9,369,280.9z"/>
		<path class="st1" d="M146.8,281.6c-67.6,0-118.8,0-120.4-0.1c-0.4,0-0.6-0.3-0.6-0.5c0-0.3,0.4-0.5,0.7-0.5
			c4.5,0.3,448.3,0,452.8,0l0,0c0.4,0,0.7,0.2,0.7,0.5c0,0.3-0.3,0.5-0.7,0.5C467.3,281.4,276.8,281.6,146.8,281.6z"/>
	</g>
	<path class="st2" d="M258.5,142.8c-0.6,0-1-0.4-1-1v-13.5c0-0.6,0.4-1,1-1s1,0.4,1,1v13.5C259.5,142.3,259,142.8,258.5,142.8z"/>
</g>
</svg>
